<svg width="376" height="280" viewBox="0 0 376 280" fill="none" xmlns="http://www.w3.org/2000/svg">
<path d="M28.957 273.158C28.6057 268.464 35.4227 263 35.4227 263H43.294C43.294 263 49.4017 268.646 48.9164 273.158C48.0796 280.936 29.5408 280.959 28.957 273.158Z" fill="#FBCF14" stroke="black" stroke-width="2"/>
<path d="M84.957 273.158C84.6057 268.464 91.4227 263 91.4227 263H99.294C99.294 263 105.402 268.646 104.916 273.158C104.08 280.936 85.5408 280.959 84.957 273.158Z" fill="#FBCF14" stroke="black" stroke-width="2"/>
<circle cx="59.9438" cy="38" r="26" fill="#FBCF14" stroke="black" stroke-width="2"/>
<circle cx="57.9438" cy="32" r="5" fill="black"/>
<circle cx="69.9438" cy="32" r="5" fill="black"/>
<path d="M63.9438 47C59.5083 47.7036 52.4438 47 52.4438 47C52.4438 47 57.8834 56.9951 63.9438 57.5C71.9433 58.1664 77.4438 42 77.4438 42C77.4438 42 69.4965 46.1192 63.9438 47Z" stroke="black" stroke-width="3" stroke-linecap="round"/>
<path d="M46.4438 69C53.4525 70.6642 54.8136 80.025 61.9438 79C67.8348 78.1531 68.0044 71.415 73.4438 69C84.1888 64.2295 102.944 75 102.944 75L118.944 100.5L93.3206 116.5C93.3206 116.5 94.1411 135.649 86.9438 144C75.216 157.608 54.1377 156.191 40.9438 144C38.8383 142.054 37.0302 140.019 35.5202 137.897C20.6798 146.555 5.93486 151.102 1.94384 138.5C-2.35865 124.914 9.44384 102.788 9.44384 102.788L1.94384 100.5L21.9438 75C21.9438 75 36.8597 66.7243 46.4438 69Z" fill="#29B448"/>
<path d="M102.944 75C102.944 75 84.1888 64.2295 73.4438 69C68.0044 71.415 67.8348 78.1531 61.9438 79C54.8136 80.025 53.4525 70.6642 46.4438 69C36.8597 66.7243 21.9438 75 21.9438 75M102.944 75L118.944 100.5L93.3206 116.5M102.944 75L93.3206 116.5M21.9438 75L1.94384 100.5L9.44384 102.788M21.9438 75C21.9438 75 27.7339 96.0269 31.4438 109.5M31.4438 109.5C27.4818 122.901 30.6801 134.516 40.9438 144C54.1377 156.191 75.216 157.608 86.9438 144C94.1411 135.649 93.3206 116.5 93.3206 116.5M31.4438 109.5C29.4912 108.904 26.4438 107.975 26.4438 107.975M9.44384 102.788C9.44384 102.788 -2.35865 124.914 1.94384 138.5C10.68 166.085 70.9438 111.5 70.9438 111.5V100.5C70.9438 100.5 15.2979 135.501 21.9438 116.5C23.1868 112.946 26.4438 107.975 26.4438 107.975M9.44384 102.788L26.4438 107.975" stroke="black" stroke-width="2"/>
<path d="M194.711 80.9104L188.85 122.241L140.81 112.446L139.769 112.233L139.62 113.285L137.02 131.619L131.079 130.777L133.747 111.965L134.928 103.638L142.916 100.601L194.711 80.9104Z" fill="#079BDB" stroke="black" stroke-width="2"/>
<path d="M107.677 137.682C99.5063 132.661 95.9438 113.731 95.9438 113.731L107.677 106.399C107.677 106.399 110.721 111.61 113.544 113.731C122.819 120.7 139.944 102 139.944 102V113.731C139.944 113.731 120.891 145.803 107.677 137.682Z" fill="#29B448"/>
<path d="M107.677 137.682C99.5063 132.661 95.9438 113.731 95.9438 113.731L107.677 106.399C107.677 106.399 110.721 111.61 113.544 113.731C122.819 120.7 139.944 102 139.944 102V113.731C139.944 113.731 120.891 145.803 107.677 137.682Z" fill="black" fill-opacity="0.2"/>
<path d="M107.677 137.682C99.5063 132.661 95.9438 113.731 95.9438 113.731L107.677 106.399C107.677 106.399 110.721 111.61 113.544 113.731C122.819 120.7 139.944 102 139.944 102V113.731C139.944 113.731 120.891 145.803 107.677 137.682Z" stroke="black" stroke-width="2"/>
<path d="M54.4438 64C54.4438 64 54.4438 78 54.4438 74.5" stroke="black" stroke-width="2"/>
<path d="M66.6653 63.1498C66.6653 63.1498 70.8147 74.3508 69.7773 71.5506" stroke="black" stroke-width="2"/>
<path d="M116 263L87.5 143.5C87.5 143.5 74.2609 154.146 64 154C54.1022 153.859 40.5 144.5 40.5 144.5L19 263L47.5195 261.944C54.2872 261.693 59.7288 256.289 60.0258 249.523L64 159L75.6136 250.569C76.4135 256.876 81.6577 261.679 88.0107 261.923L116 263Z" fill="#079BDB" stroke="black" stroke-width="2"/>
<path d="M73.4778 101.37L71.9438 102.5V108H81.4438V105.395C81.4438 101.294 76.7792 98.9371 73.4778 101.37Z" stroke="black" stroke-width="2"/>
<path d="M316.203 10.1981C303.159 -3.1865 234.68 -0.891992 224.897 10.1981C215.114 21.2881 224.897 32.7606 224.897 32.7606L209 58L224.897 48.822H316.203C316.203 48.822 329.246 23.5826 316.203 10.1981Z" fill="#079BDB" stroke="black" stroke-width="2"/>
<path d="M320.203 158.77C307.159 170.746 238.68 168.693 228.897 158.77C219.114 148.847 228.897 138.583 228.897 138.583L213 116L228.897 124.212H320.203C320.203 124.212 333.246 146.795 320.203 158.77Z" fill="#29B448" stroke="black" stroke-width="2"/>
<path d="M315.203 242.093C302.159 253.599 233.68 251.626 223.897 242.093C214.114 232.559 223.897 222.697 223.897 222.697L208 201L223.897 208.89H315.203C315.203 208.89 328.246 230.587 315.203 242.093Z" fill="#FBCF14" stroke="black" stroke-width="2"/>
<path d="M246.308 30.144C245.58 30.144 244.936 29.972 244.376 29.628C243.816 29.276 243.38 28.78 243.068 28.14C242.756 27.492 242.6 26.724 242.6 25.836C242.6 24.98 242.756 24.224 243.068 23.568C243.388 22.904 243.836 22.388 244.412 22.02C244.996 21.644 245.676 21.456 246.452 21.456C246.852 21.456 247.216 21.496 247.544 21.576C247.872 21.648 248.18 21.752 248.468 21.888L248.12 22.848C247.872 22.728 247.616 22.632 247.352 22.56C247.096 22.488 246.792 22.452 246.44 22.452C245.928 22.452 245.468 22.584 245.06 22.848C244.66 23.112 244.344 23.492 244.112 23.988C243.88 24.484 243.764 25.084 243.764 25.788C243.764 26.46 243.876 27.048 244.1 27.552C244.332 28.056 244.648 28.448 245.048 28.728C245.456 29.008 245.92 29.148 246.44 29.148C246.832 29.148 247.172 29.1 247.46 29.004C247.748 28.908 248.028 28.784 248.3 28.632L248.648 29.58C248.352 29.74 248.012 29.876 247.628 29.988C247.252 30.092 246.812 30.144 246.308 30.144ZM252.35 30.144C251.758 30.144 251.226 30.008 250.754 29.736C250.282 29.456 249.91 29.072 249.638 28.584C249.374 28.088 249.242 27.52 249.242 26.88C249.242 26.208 249.378 25.628 249.65 25.14C249.922 24.652 250.294 24.276 250.766 24.012C251.238 23.748 251.766 23.616 252.35 23.616C252.934 23.616 253.458 23.748 253.922 24.012C254.394 24.276 254.766 24.652 255.038 25.14C255.318 25.62 255.458 26.192 255.458 26.856C255.458 27.52 255.322 28.1 255.05 28.596C254.778 29.084 254.406 29.464 253.934 29.736C253.47 30.008 252.942 30.144 252.35 30.144ZM252.35 29.184C252.982 29.184 253.474 28.972 253.826 28.548C254.178 28.116 254.354 27.56 254.354 26.88C254.354 26.464 254.266 26.084 254.09 25.74C253.914 25.388 253.674 25.108 253.37 24.9C253.074 24.684 252.734 24.576 252.35 24.576C251.718 24.576 251.226 24.784 250.874 25.2C250.522 25.616 250.346 26.168 250.346 26.856C250.346 27.272 250.434 27.66 250.61 28.02C250.786 28.372 251.022 28.656 251.318 28.872C251.622 29.08 251.966 29.184 252.35 29.184ZM256.894 30V23.76H257.938V24.804C258.162 24.468 258.446 24.188 258.79 23.964C259.134 23.732 259.526 23.616 259.966 23.616C260.462 23.616 260.866 23.736 261.178 23.976C261.498 24.216 261.722 24.536 261.85 24.936C262.098 24.568 262.39 24.256 262.726 24C263.07 23.744 263.494 23.616 263.998 23.616C264.678 23.616 265.182 23.832 265.51 24.264C265.846 24.688 266.014 25.244 266.014 25.932V30H264.934V26.016C264.934 25.584 264.834 25.236 264.634 24.972C264.434 24.7 264.158 24.564 263.806 24.564C263.446 24.564 263.11 24.7 262.798 24.972C262.494 25.236 262.226 25.548 261.994 25.908V30H260.914V26.016C260.914 25.584 260.814 25.236 260.614 24.972C260.414 24.7 260.138 24.564 259.786 24.564C259.434 24.564 259.102 24.696 258.79 24.96C258.478 25.216 258.206 25.52 257.974 25.872V30H256.894ZM268.102 32.64V25.356C268.102 25.084 268.034 24.892 267.898 24.78C267.77 24.66 267.602 24.6 267.394 24.6L267.622 23.76C268.358 23.76 268.818 24.052 269.002 24.636C269.082 24.516 269.21 24.376 269.386 24.216C269.57 24.056 269.794 23.916 270.058 23.796C270.33 23.676 270.638 23.616 270.982 23.616C271.462 23.616 271.91 23.744 272.326 24C272.75 24.248 273.09 24.612 273.346 25.092C273.602 25.564 273.73 26.14 273.73 26.82C273.73 27.484 273.602 28.068 273.346 28.572C273.09 29.068 272.754 29.456 272.338 29.736C271.93 30.008 271.486 30.144 271.006 30.144C270.638 30.144 270.294 30.072 269.974 29.928C269.654 29.776 269.39 29.604 269.182 29.412V32.64H268.102ZM270.79 29.184C271.334 29.184 271.774 28.972 272.11 28.548C272.454 28.116 272.626 27.552 272.626 26.856C272.626 26.376 272.538 25.964 272.362 25.62C272.194 25.276 271.966 25.012 271.678 24.828C271.398 24.644 271.086 24.552 270.742 24.552C270.398 24.552 270.086 24.64 269.806 24.816C269.534 24.984 269.326 25.168 269.182 25.368V28.44C269.39 28.656 269.63 28.836 269.902 28.98C270.174 29.116 270.47 29.184 270.79 29.184ZM277.129 30.144C276.761 30.144 276.429 30.076 276.133 29.94C275.837 29.796 275.601 29.568 275.425 29.256C275.257 28.944 275.173 28.54 275.173 28.044V21.12H276.253V27.936C276.253 28.368 276.341 28.688 276.517 28.896C276.701 29.104 276.953 29.208 277.273 29.208C277.425 29.208 277.573 29.192 277.717 29.16C277.869 29.12 277.997 29.076 278.101 29.028L278.365 29.904C278.221 29.968 278.041 30.024 277.825 30.072C277.617 30.12 277.385 30.144 277.129 30.144ZM279.382 30V23.76H280.462V30H279.382ZM279.922 22.692C279.714 22.692 279.534 22.616 279.382 22.464C279.238 22.312 279.166 22.136 279.166 21.936C279.166 21.704 279.234 21.52 279.37 21.384C279.506 21.248 279.69 21.18 279.922 21.18C280.13 21.18 280.306 21.256 280.45 21.408C280.602 21.552 280.678 21.728 280.678 21.936C280.678 22.16 280.61 22.344 280.474 22.488C280.338 22.624 280.154 22.692 279.922 22.692ZM284.77 30.144C284.25 30.144 283.778 30.012 283.354 29.748C282.93 29.484 282.59 29.112 282.334 28.632C282.086 28.144 281.962 27.572 281.962 26.916C281.962 26.292 282.086 25.732 282.334 25.236C282.59 24.74 282.938 24.348 283.378 24.06C283.826 23.764 284.338 23.616 284.914 23.616C285.274 23.616 285.598 23.68 285.886 23.808C286.182 23.928 286.438 24.08 286.654 24.264V23.76H287.638V28.488C287.638 28.792 287.71 28.992 287.854 29.088C288.006 29.176 288.17 29.22 288.346 29.22L288.118 30.06C287.35 30.06 286.886 29.748 286.726 29.124C286.542 29.38 286.29 29.616 285.97 29.832C285.658 30.04 285.258 30.144 284.77 30.144ZM285.01 29.184C285.314 29.184 285.602 29.112 285.874 28.968C286.146 28.816 286.374 28.628 286.558 28.404V25.056C286.342 24.904 286.102 24.784 285.838 24.696C285.582 24.6 285.31 24.552 285.022 24.552C284.638 24.552 284.298 24.652 284.002 24.852C283.714 25.044 283.486 25.316 283.318 25.668C283.15 26.012 283.066 26.416 283.066 26.88C283.066 27.328 283.15 27.728 283.318 28.08C283.486 28.424 283.718 28.696 284.014 28.896C284.31 29.088 284.642 29.184 285.01 29.184ZM289.788 30V23.76H290.832V24.804C291.056 24.468 291.34 24.188 291.684 23.964C292.036 23.732 292.452 23.616 292.932 23.616C293.636 23.616 294.16 23.828 294.504 24.252C294.856 24.676 295.032 25.236 295.032 25.932V30H293.952V26.052C293.952 25.604 293.844 25.244 293.628 24.972C293.42 24.7 293.128 24.564 292.752 24.564C292.384 24.564 292.036 24.696 291.708 24.96C291.38 25.216 291.1 25.52 290.868 25.872V30H289.788ZM299.41 30.144C298.818 30.144 298.298 30.008 297.85 29.736C297.41 29.456 297.07 29.072 296.83 28.584C296.59 28.088 296.47 27.52 296.47 26.88C296.47 26.28 296.59 25.732 296.83 25.236C297.078 24.74 297.43 24.348 297.886 24.06C298.342 23.764 298.878 23.616 299.494 23.616C299.846 23.616 300.154 23.648 300.418 23.712C300.69 23.776 300.95 23.868 301.198 23.988L300.874 24.9C300.65 24.788 300.434 24.708 300.226 24.66C300.026 24.604 299.802 24.576 299.554 24.576C298.994 24.576 298.522 24.78 298.138 25.188C297.762 25.588 297.574 26.144 297.574 26.856C297.574 27.288 297.654 27.68 297.814 28.032C297.974 28.384 298.194 28.664 298.474 28.872C298.762 29.08 299.098 29.184 299.482 29.184C299.786 29.184 300.046 29.152 300.262 29.088C300.478 29.016 300.71 28.916 300.958 28.788L301.294 29.7C301.046 29.836 300.766 29.944 300.454 30.024C300.15 30.104 299.802 30.144 299.41 30.144ZM304.929 30.144C304.033 30.144 303.321 29.86 302.793 29.292C302.273 28.716 302.013 27.912 302.013 26.88C302.013 26.256 302.129 25.7 302.361 25.212C302.601 24.716 302.933 24.328 303.357 24.048C303.781 23.76 304.273 23.616 304.833 23.616C305.433 23.616 305.929 23.748 306.321 24.012C306.721 24.268 307.021 24.616 307.221 25.056C307.421 25.496 307.521 25.98 307.521 26.508C307.521 26.788 307.509 27.06 307.485 27.324H303.117C303.189 27.908 303.393 28.364 303.729 28.692C304.065 29.02 304.509 29.184 305.061 29.184C305.421 29.184 305.745 29.148 306.033 29.076C306.321 28.996 306.597 28.896 306.861 28.776L307.113 29.7C306.825 29.828 306.501 29.932 306.141 30.012C305.781 30.1 305.377 30.144 304.929 30.144ZM303.105 26.448H306.525C306.525 25.84 306.373 25.372 306.069 25.044C305.765 24.716 305.345 24.552 304.809 24.552C304.345 24.552 303.961 24.716 303.657 25.044C303.353 25.364 303.169 25.832 303.105 26.448Z" fill="black"/>
<path d="M249.529 147.666C249.671 147.525 249.83 147.445 250.007 147.428C250.192 147.401 250.36 147.423 250.51 147.494C250.661 147.565 250.776 147.68 250.855 147.839C250.944 147.989 250.966 148.17 250.922 148.382C250.869 148.594 250.767 148.793 250.617 148.979C250.466 149.156 250.316 149.319 250.166 149.47C249.821 149.832 249.436 150.097 249.012 150.265C248.597 150.442 248.172 150.526 247.739 150.517C247.315 150.508 246.895 150.407 246.48 150.212C246.073 150.018 245.706 149.726 245.379 149.337C245.185 149.107 245.021 148.864 244.888 148.608C244.756 148.351 244.654 148.082 244.583 147.799C244.477 147.383 244.429 146.95 244.438 146.499C244.446 146.049 244.517 145.611 244.65 145.187C244.782 144.762 244.968 144.365 245.207 143.993C245.454 143.613 245.755 143.291 246.108 143.025C246.365 142.831 246.621 142.663 246.877 142.522C247.143 142.38 247.421 142.248 247.713 142.124C247.881 142.053 248.053 141.987 248.23 141.925C248.407 141.854 248.588 141.801 248.773 141.766C248.959 141.73 249.145 141.717 249.33 141.726C249.516 141.735 249.697 141.775 249.874 141.845C249.998 141.898 250.122 141.973 250.245 142.071C250.369 142.159 250.484 142.265 250.59 142.389C250.696 142.504 250.789 142.628 250.869 142.76C250.948 142.893 251.006 143.021 251.041 143.145C251.067 143.26 251.072 143.379 251.054 143.503C251.045 143.618 251.01 143.724 250.948 143.821C250.895 143.918 250.82 144.002 250.723 144.073C250.625 144.135 250.515 144.175 250.391 144.192C250.188 144.219 250.029 144.197 249.914 144.126C249.808 144.055 249.719 143.967 249.649 143.861C249.587 143.755 249.525 143.653 249.463 143.556C249.401 143.45 249.313 143.375 249.198 143.33C249.127 143.33 249.074 143.335 249.039 143.344C248.738 143.423 248.433 143.534 248.124 143.675C247.823 143.808 247.54 143.971 247.275 144.166C247.019 144.36 246.793 144.586 246.599 144.842C246.404 145.098 246.263 145.386 246.175 145.704C246.069 146.084 246.029 146.469 246.055 146.857C246.082 147.246 246.188 147.613 246.373 147.958C246.48 148.161 246.621 148.338 246.798 148.488C246.975 148.639 247.169 148.754 247.381 148.833C247.593 148.904 247.81 148.93 248.031 148.913C248.252 148.886 248.464 148.807 248.667 148.674C248.844 148.55 249.003 148.4 249.145 148.223C249.286 148.038 249.414 147.852 249.529 147.666ZM257.612 148.966C257.692 149.081 257.736 149.218 257.745 149.377C257.763 149.527 257.745 149.673 257.692 149.814C257.648 149.947 257.568 150.057 257.453 150.146C257.347 150.234 257.206 150.274 257.029 150.265C256.799 150.248 256.613 150.168 256.472 150.027C256.331 149.885 256.198 149.726 256.074 149.549C255.73 149.832 255.371 150.027 255 150.133C254.638 150.248 254.28 150.274 253.926 150.212C253.573 150.15 253.241 150.004 252.932 149.775C252.622 149.536 252.362 149.218 252.149 148.82C251.955 148.449 251.844 148.038 251.818 147.587C251.8 147.136 251.796 146.707 251.805 146.301C251.805 146.159 251.809 146.022 251.818 145.89C251.827 145.748 251.836 145.602 251.844 145.452C251.853 145.337 251.858 145.227 251.858 145.12C251.858 145.006 251.862 144.899 251.871 144.802C251.889 144.705 251.915 144.608 251.951 144.51C251.995 144.413 252.057 144.32 252.136 144.232C252.242 144.117 252.37 144.051 252.521 144.033C252.671 144.007 252.812 144.02 252.945 144.073C253.086 144.126 253.206 144.21 253.303 144.325C253.409 144.431 253.467 144.564 253.475 144.723C253.493 145.173 253.48 145.629 253.436 146.088C253.4 146.548 253.405 146.999 253.449 147.441C253.467 147.653 253.52 147.87 253.608 148.091C253.705 148.312 253.855 148.471 254.059 148.568C254.262 148.656 254.465 148.652 254.669 148.555C254.881 148.449 255.053 148.325 255.186 148.183C255.248 148.113 255.305 148.038 255.358 147.958C255.42 147.87 255.486 147.794 255.557 147.733C255.522 147.423 255.5 147.114 255.491 146.804C255.482 146.495 255.482 146.186 255.491 145.876C255.491 145.708 255.495 145.527 255.504 145.333C255.522 145.129 255.557 144.939 255.61 144.762C255.672 144.577 255.76 144.418 255.875 144.285C255.99 144.144 256.154 144.055 256.366 144.02C256.463 144.002 256.556 144.011 256.644 144.046C256.742 144.082 256.826 144.13 256.896 144.192C257.02 144.298 257.104 144.418 257.148 144.55C257.192 144.683 257.215 144.824 257.215 144.975C257.215 145.125 257.201 145.28 257.175 145.439C257.157 145.589 257.144 145.73 257.135 145.863C257.117 146.11 257.104 146.371 257.095 146.645C257.086 146.919 257.095 147.193 257.122 147.467C257.148 147.741 257.197 148.007 257.268 148.263C257.347 148.519 257.462 148.754 257.612 148.966ZM258.517 149.112C258.464 148.961 258.442 148.815 258.45 148.674C258.459 148.524 258.495 148.391 258.557 148.276C258.627 148.152 258.724 148.06 258.848 147.998C258.972 147.927 259.122 147.901 259.299 147.918C259.396 147.927 259.485 147.954 259.564 147.998C259.644 148.042 259.715 148.095 259.776 148.157C259.847 148.219 259.913 148.285 259.975 148.356C260.046 148.427 260.117 148.488 260.187 148.541C260.338 148.656 260.497 148.74 260.665 148.793C260.833 148.846 261.01 148.886 261.195 148.913C261.319 148.913 261.416 148.882 261.487 148.82C261.566 148.758 261.619 148.683 261.646 148.594C261.673 148.506 261.677 148.413 261.659 148.316C261.65 148.21 261.619 148.126 261.566 148.064C261.416 147.914 261.231 147.817 261.01 147.772C260.797 147.728 260.599 147.675 260.413 147.613C260.148 147.525 259.887 147.414 259.631 147.282C259.374 147.14 259.166 146.95 259.007 146.712C258.839 146.464 258.738 146.203 258.702 145.929C258.676 145.646 258.698 145.372 258.769 145.107C258.848 144.842 258.976 144.599 259.153 144.378C259.33 144.157 259.542 143.976 259.79 143.834C259.975 143.728 260.179 143.662 260.4 143.635C260.621 143.6 260.842 143.591 261.063 143.609C261.292 143.627 261.518 143.671 261.739 143.741C261.96 143.803 262.163 143.874 262.349 143.954C262.561 144.051 262.72 144.188 262.826 144.365C262.932 144.541 262.981 144.723 262.972 144.908C262.972 145.085 262.91 145.24 262.786 145.372C262.671 145.505 262.499 145.571 262.269 145.571C262.128 145.571 262 145.549 261.885 145.505C261.77 145.452 261.65 145.403 261.527 145.359C261.368 145.297 261.195 145.257 261.01 145.24C260.824 145.213 260.674 145.222 260.559 145.266C260.523 145.275 260.484 145.306 260.439 145.359C260.395 145.403 260.36 145.461 260.333 145.531C260.316 145.602 260.311 145.673 260.32 145.744C260.338 145.814 260.386 145.872 260.466 145.916C260.678 146.031 260.903 146.119 261.142 146.181C261.381 146.243 261.615 146.314 261.845 146.393C262.075 146.473 262.287 146.575 262.481 146.698C262.685 146.822 262.853 146.999 262.985 147.229C263.18 147.565 263.277 147.918 263.277 148.29C263.286 148.652 263.215 148.992 263.065 149.31C262.915 149.629 262.694 149.898 262.402 150.119C262.11 150.349 261.77 150.486 261.381 150.53C261.107 150.557 260.837 150.539 260.572 150.477C260.307 150.424 260.05 150.331 259.803 150.199C259.555 150.075 259.326 149.925 259.113 149.748C258.901 149.571 258.716 149.386 258.557 149.191L258.517 149.112ZM264.693 145.585C264.516 145.54 264.361 145.465 264.229 145.359C264.105 145.253 264.016 145.129 263.963 144.988C263.919 144.846 263.919 144.701 263.963 144.55C264.016 144.4 264.127 144.263 264.295 144.139C264.436 144.033 264.595 143.98 264.772 143.98C264.949 143.98 265.121 143.98 265.289 143.98C265.289 143.918 265.285 143.786 265.276 143.582C265.267 143.37 265.263 143.14 265.263 142.893C265.272 142.645 265.289 142.411 265.316 142.19C265.342 141.96 265.391 141.801 265.462 141.713C265.639 141.465 265.855 141.35 266.112 141.368C266.377 141.377 266.593 141.501 266.761 141.739C266.797 141.783 266.828 141.836 266.854 141.898C266.889 141.96 266.907 142.018 266.907 142.071C266.916 142.389 266.916 142.707 266.907 143.025C266.907 143.344 266.907 143.662 266.907 143.98H267.955C268.114 143.98 268.251 144.033 268.366 144.139C268.481 144.245 268.56 144.369 268.604 144.51C268.657 144.652 268.671 144.798 268.644 144.948C268.626 145.098 268.56 145.222 268.445 145.319C268.242 145.487 268.003 145.576 267.729 145.585C267.464 145.593 267.19 145.598 266.907 145.598C266.907 146.084 266.903 146.57 266.894 147.056C266.894 147.543 266.898 148.029 266.907 148.515C266.907 148.727 266.916 148.944 266.934 149.165C266.96 149.386 266.947 149.598 266.894 149.801C266.85 149.96 266.774 150.084 266.668 150.172C266.562 150.27 266.443 150.327 266.31 150.345C266.178 150.371 266.041 150.362 265.899 150.318C265.758 150.283 265.625 150.212 265.502 150.106C265.44 150.044 265.391 149.938 265.356 149.788C265.329 149.638 265.312 149.478 265.303 149.31C265.294 149.116 265.294 148.908 265.303 148.687C265.303 148.51 265.303 148.281 265.303 147.998C265.303 147.715 265.298 147.423 265.289 147.123C265.289 146.813 265.289 146.522 265.289 146.248C265.289 145.973 265.289 145.757 265.289 145.598L264.693 145.585ZM268.699 146.831C268.761 146.575 268.845 146.323 268.951 146.075C269.066 145.828 269.203 145.593 269.362 145.372C269.521 145.143 269.698 144.935 269.893 144.749C270.096 144.564 270.313 144.413 270.542 144.298C270.949 144.086 271.356 143.98 271.762 143.98C272.178 143.971 272.562 144.051 272.916 144.219C273.27 144.387 273.57 144.639 273.818 144.975C274.065 145.302 274.229 145.695 274.308 146.155C274.352 146.455 274.375 146.743 274.375 147.017C274.383 147.282 274.357 147.56 274.295 147.852C274.207 148.267 274.025 148.683 273.751 149.098C273.486 149.505 273.163 149.845 272.783 150.119C272.412 150.402 272.001 150.588 271.55 150.676C271.108 150.765 270.662 150.694 270.211 150.464C270.008 150.367 269.822 150.252 269.654 150.119C269.495 149.996 269.349 149.845 269.217 149.669C269.066 149.474 268.947 149.271 268.859 149.059C268.779 148.846 268.713 148.625 268.66 148.396C268.598 148.148 268.576 147.901 268.593 147.653C268.611 147.397 268.642 147.149 268.686 146.91L268.699 146.831ZM270.291 147.109C270.264 147.251 270.242 147.392 270.224 147.534C270.207 147.666 270.207 147.803 270.224 147.945C270.251 148.148 270.304 148.334 270.383 148.502C270.472 148.67 270.582 148.802 270.715 148.899C270.856 148.997 271.015 149.05 271.192 149.059C271.369 149.059 271.559 149.001 271.762 148.886C272.019 148.736 272.24 148.506 272.425 148.197C272.611 147.878 272.726 147.551 272.77 147.215C272.814 146.871 272.779 146.548 272.664 146.248C272.549 145.938 272.324 145.717 271.988 145.585C271.767 145.585 271.563 145.629 271.378 145.717C271.192 145.797 271.029 145.907 270.887 146.049C270.755 146.181 270.635 146.34 270.529 146.526C270.432 146.712 270.352 146.906 270.291 147.109ZM278.639 146.208V146.022C278.56 145.819 278.431 145.677 278.255 145.598C278.078 145.509 277.888 145.456 277.684 145.439C277.569 145.474 277.477 145.514 277.406 145.558C277.335 145.602 277.273 145.651 277.22 145.704C277.167 145.757 277.119 145.819 277.074 145.89C277.03 145.951 276.977 146.018 276.915 146.088V149.562C276.915 149.836 276.831 150.049 276.663 150.199C276.504 150.358 276.323 150.446 276.12 150.464C275.925 150.491 275.744 150.442 275.576 150.318C275.408 150.203 275.32 150.004 275.311 149.722C275.293 149.041 275.284 148.267 275.284 147.401C275.293 146.535 275.298 145.567 275.298 144.497C275.298 144.312 275.351 144.157 275.457 144.033C275.572 143.909 275.704 143.825 275.855 143.781C276.014 143.737 276.173 143.741 276.332 143.794C276.5 143.839 276.637 143.936 276.743 144.086C277.238 143.839 277.729 143.764 278.215 143.861C278.71 143.949 279.156 144.179 279.554 144.55C279.731 144.373 279.921 144.214 280.124 144.073C280.327 143.931 280.548 143.839 280.787 143.794C281.061 143.75 281.335 143.764 281.609 143.834C281.892 143.896 282.153 144.002 282.392 144.152C282.63 144.303 282.838 144.488 283.015 144.709C283.2 144.93 283.337 145.169 283.426 145.425C283.47 145.602 283.492 145.761 283.492 145.903V149.509C283.492 149.615 283.479 149.717 283.452 149.814C283.373 150.044 283.245 150.203 283.068 150.292C282.9 150.389 282.723 150.424 282.537 150.398C282.361 150.371 282.206 150.287 282.073 150.146C281.941 150.004 281.874 149.814 281.874 149.576V146.009C281.795 145.797 281.68 145.642 281.53 145.545C281.379 145.448 281.225 145.403 281.066 145.412C280.907 145.421 280.752 145.478 280.602 145.585C280.46 145.691 280.345 145.836 280.257 146.022V149.496C280.257 149.735 280.177 149.934 280.018 150.093C279.868 150.252 279.7 150.354 279.514 150.398C279.329 150.442 279.152 150.424 278.984 150.345C278.825 150.265 278.732 150.106 278.705 149.867L278.639 146.208ZM286.5 149.629C286.482 149.806 286.42 149.96 286.314 150.093C286.208 150.234 286.085 150.336 285.943 150.398C285.811 150.46 285.665 150.473 285.506 150.438C285.346 150.402 285.205 150.305 285.081 150.146C285.011 150.057 284.957 149.96 284.922 149.854C284.896 149.739 284.878 149.624 284.869 149.509C284.86 149.386 284.856 149.266 284.856 149.151C284.865 149.028 284.869 148.917 284.869 148.82C284.86 148.298 284.856 147.781 284.856 147.269C284.865 146.756 284.865 146.239 284.856 145.717C284.856 145.505 284.843 145.293 284.816 145.081C284.79 144.86 284.803 144.643 284.856 144.431C284.9 144.272 284.975 144.135 285.081 144.02C285.196 143.905 285.32 143.825 285.453 143.781C285.594 143.737 285.735 143.733 285.877 143.768C286.027 143.803 286.155 143.896 286.261 144.046C286.403 144.223 286.474 144.4 286.474 144.577C286.474 144.745 286.474 144.952 286.474 145.2C286.474 145.501 286.474 145.801 286.474 146.102C286.474 146.402 286.478 146.698 286.487 146.99C286.496 147.414 286.5 147.839 286.5 148.263C286.5 148.687 286.5 149.112 286.5 149.536V149.629ZM284.75 142.084C284.785 141.757 284.896 141.518 285.081 141.368C285.276 141.209 285.479 141.134 285.691 141.143C285.903 141.143 286.098 141.222 286.275 141.381C286.46 141.54 286.557 141.766 286.566 142.057C286.584 142.358 286.504 142.592 286.328 142.76C286.16 142.919 285.965 143.012 285.744 143.039C285.523 143.056 285.315 142.994 285.121 142.853C284.927 142.712 284.807 142.486 284.763 142.177L284.75 142.084ZM293.232 148.793C293.426 148.882 293.577 149.001 293.683 149.151C293.798 149.302 293.855 149.456 293.855 149.615C293.864 149.766 293.815 149.907 293.709 150.04C293.603 150.181 293.431 150.283 293.192 150.345C293.015 150.389 292.821 150.389 292.609 150.345C292.397 150.309 292.202 150.283 292.025 150.265C291.574 150.23 291.128 150.217 290.686 150.225C290.253 150.234 289.811 150.248 289.36 150.265C289.236 150.274 289.104 150.287 288.962 150.305C288.821 150.323 288.679 150.327 288.538 150.318C288.397 150.309 288.259 150.283 288.127 150.239C288.003 150.194 287.897 150.11 287.809 149.987C287.703 149.836 287.65 149.686 287.65 149.536C287.658 149.377 287.698 149.227 287.769 149.085C287.84 148.935 287.928 148.793 288.034 148.661C288.14 148.519 288.237 148.391 288.326 148.276C288.697 147.772 289.086 147.295 289.493 146.844C289.908 146.385 290.328 145.92 290.752 145.452C290.567 145.461 290.377 145.47 290.182 145.478C289.997 145.478 289.806 145.483 289.612 145.492C289.382 145.509 289.139 145.536 288.883 145.571C288.635 145.607 288.397 145.589 288.167 145.518C287.963 145.456 287.818 145.359 287.729 145.227C287.641 145.085 287.601 144.939 287.61 144.789C287.619 144.639 287.672 144.493 287.769 144.351C287.866 144.201 287.999 144.086 288.167 144.007C288.246 143.962 288.33 143.94 288.419 143.94C288.507 143.94 288.595 143.936 288.684 143.927C289.073 143.901 289.448 143.883 289.811 143.874C290.173 143.856 290.553 143.843 290.951 143.834C291.075 143.834 291.269 143.825 291.535 143.808C291.8 143.781 292.065 143.781 292.33 143.808C292.604 143.834 292.843 143.905 293.046 144.02C293.258 144.126 293.373 144.312 293.391 144.577C293.4 144.727 293.373 144.869 293.311 145.001C293.25 145.134 293.166 145.257 293.059 145.372C292.962 145.487 292.856 145.598 292.741 145.704C292.626 145.801 292.525 145.898 292.436 145.996C292.03 146.429 291.623 146.862 291.216 147.295C290.819 147.728 290.434 148.175 290.063 148.634C290.584 148.625 291.097 148.634 291.601 148.661C292.114 148.678 292.631 148.714 293.152 148.767L293.232 148.793ZM298.86 148.223C299.072 148.17 299.258 148.17 299.417 148.223C299.585 148.267 299.713 148.347 299.801 148.462C299.89 148.577 299.93 148.718 299.921 148.886C299.912 149.054 299.837 149.231 299.695 149.417C299.58 149.567 299.421 149.695 299.218 149.801C299.015 149.907 298.825 149.991 298.648 150.053C298.215 150.212 297.804 150.323 297.415 150.385C297.026 150.446 296.659 150.446 296.314 150.385C295.978 150.323 295.66 150.194 295.359 150C295.068 149.806 294.794 149.531 294.537 149.178C294.361 148.939 294.228 148.67 294.14 148.369C294.06 148.06 294.016 147.746 294.007 147.428C293.998 147.109 294.025 146.796 294.087 146.486C294.148 146.177 294.237 145.898 294.352 145.651C294.502 145.341 294.741 145.059 295.068 144.802C295.395 144.546 295.757 144.343 296.155 144.192C296.553 144.042 296.959 143.958 297.375 143.94C297.79 143.914 298.157 143.976 298.475 144.126C298.741 144.25 298.966 144.431 299.152 144.67C299.346 144.899 299.479 145.151 299.549 145.425C299.62 145.699 299.625 145.978 299.563 146.261C299.51 146.535 299.368 146.787 299.138 147.017C298.917 147.238 298.674 147.419 298.409 147.56C298.144 147.693 297.87 147.812 297.587 147.918C297.304 148.015 297.012 148.099 296.712 148.17C296.42 148.241 296.137 148.32 295.863 148.409C296.049 148.621 296.261 148.758 296.5 148.82C296.738 148.873 296.986 148.882 297.242 148.846C297.508 148.811 297.773 148.74 298.038 148.634C298.303 148.519 298.551 148.396 298.78 148.263L298.86 148.223ZM296.182 145.943C295.978 146.057 295.828 146.203 295.731 146.38C295.633 146.548 295.563 146.787 295.519 147.096C295.748 147.025 296.005 146.95 296.288 146.871C296.579 146.791 296.853 146.707 297.11 146.619C297.366 146.53 297.583 146.433 297.759 146.327C297.936 146.221 298.025 146.106 298.025 145.982C298.025 145.912 298.011 145.845 297.985 145.783C297.967 145.713 297.923 145.664 297.852 145.638C297.605 145.549 297.348 145.531 297.083 145.585C296.818 145.638 296.597 145.713 296.42 145.81L296.182 145.943ZM306.99 148.939C307.14 149.196 307.189 149.425 307.135 149.629C307.091 149.832 306.994 149.982 306.844 150.08C306.694 150.186 306.508 150.225 306.287 150.199C306.075 150.181 305.867 150.071 305.664 149.867C305.452 150.018 305.231 150.133 305.001 150.212C304.771 150.301 304.528 150.376 304.271 150.438C303.874 150.526 303.489 150.517 303.118 150.411C302.755 150.314 302.433 150.15 302.15 149.92C301.867 149.691 301.637 149.408 301.46 149.072C301.284 148.727 301.186 148.356 301.169 147.958C301.142 147.516 301.173 147.092 301.261 146.685C301.359 146.278 301.509 145.907 301.712 145.571C301.916 145.235 302.181 144.948 302.508 144.709C302.844 144.471 303.237 144.303 303.688 144.206C303.953 144.152 304.218 144.126 304.484 144.126C304.758 144.126 305.027 144.148 305.292 144.192C305.284 143.998 305.275 143.777 305.266 143.529C305.266 143.273 305.266 143.025 305.266 142.787C305.266 142.548 305.275 142.336 305.292 142.15C305.31 141.956 305.332 141.819 305.359 141.739C305.421 141.58 305.513 141.461 305.637 141.381C305.77 141.293 305.907 141.249 306.048 141.249C306.19 141.24 306.327 141.275 306.459 141.355C306.601 141.425 306.711 141.536 306.791 141.686C306.808 141.73 306.831 141.775 306.857 141.819C306.884 141.854 306.897 141.894 306.897 141.938C306.906 143.096 306.906 144.241 306.897 145.372C306.897 146.504 306.897 147.649 306.897 148.807C306.932 148.86 306.963 148.904 306.99 148.939ZM305.147 148.21C305.164 148.183 305.195 148.157 305.239 148.13C305.292 148.104 305.319 148.069 305.319 148.024C305.319 147.653 305.319 147.291 305.319 146.937C305.319 146.575 305.315 146.208 305.306 145.836C305.094 145.792 304.873 145.766 304.643 145.757C304.413 145.748 304.187 145.77 303.966 145.823C303.754 145.876 303.555 145.965 303.37 146.088C303.193 146.212 303.052 146.389 302.945 146.619C302.892 146.787 302.844 146.955 302.8 147.123C302.755 147.291 302.729 147.454 302.72 147.613C302.72 147.772 302.742 147.931 302.786 148.091C302.831 148.241 302.906 148.387 303.012 148.528C303.047 148.564 303.087 148.599 303.131 148.634C303.184 148.67 303.281 148.731 303.423 148.82C303.75 148.846 304.059 148.815 304.351 148.727C304.652 148.639 304.917 148.466 305.147 148.21Z" fill="black"/>
<path d="M265.064 221.309C265.135 221.044 265.263 220.859 265.449 220.752C265.634 220.646 265.824 220.611 266.019 220.646C266.213 220.682 266.377 220.783 266.509 220.951C266.642 221.11 266.691 221.323 266.655 221.588C266.602 221.924 266.531 222.26 266.443 222.596C266.364 222.931 266.275 223.263 266.178 223.59C266.045 224.014 265.895 224.43 265.727 224.836C265.568 225.243 265.418 225.659 265.276 226.083C265.135 226.481 264.989 226.878 264.839 227.276C264.697 227.665 264.547 228.059 264.388 228.456C264.335 228.589 264.277 228.73 264.215 228.881C264.162 229.022 264.092 229.146 264.003 229.252C263.871 229.429 263.69 229.535 263.46 229.57C263.23 229.606 263.027 229.548 262.85 229.398C262.708 229.274 262.607 229.124 262.545 228.947C262.483 228.761 262.417 228.585 262.346 228.417C262.266 228.204 262.173 227.97 262.067 227.714C261.97 227.457 261.886 227.228 261.815 227.024C261.665 226.627 261.519 226.229 261.378 225.831C261.245 225.424 261.104 225.022 260.954 224.624C260.83 224.996 260.697 225.358 260.556 225.712C260.423 226.056 260.295 226.41 260.171 226.772C260.074 227.011 259.981 227.25 259.893 227.488C259.804 227.727 259.712 227.961 259.614 228.191C259.552 228.35 259.499 228.474 259.455 228.562C259.42 228.642 259.358 228.77 259.27 228.947C259.208 229.088 259.115 229.212 258.991 229.318C258.867 229.433 258.735 229.508 258.593 229.544C258.461 229.588 258.324 229.588 258.182 229.544C258.041 229.499 257.917 229.393 257.811 229.225C257.661 228.996 257.555 228.726 257.493 228.417C257.44 228.107 257.373 227.824 257.294 227.568C257.241 227.409 257.188 227.25 257.135 227.091C257.091 226.931 257.042 226.777 256.989 226.627C256.936 226.467 256.878 226.308 256.817 226.149C256.764 225.99 256.71 225.835 256.657 225.685C256.481 225.172 256.295 224.669 256.101 224.173C255.915 223.67 255.725 223.166 255.53 222.662C255.495 222.556 255.446 222.45 255.385 222.344C255.323 222.229 255.265 222.114 255.212 221.999C255.159 221.875 255.115 221.756 255.08 221.641C255.053 221.517 255.044 221.398 255.053 221.283C255.071 221.133 255.124 221.004 255.212 220.898C255.309 220.792 255.42 220.717 255.544 220.673C255.667 220.62 255.8 220.602 255.941 220.62C256.083 220.629 256.211 220.682 256.326 220.779C256.565 220.982 256.741 221.252 256.856 221.588C256.98 221.924 257.095 222.233 257.201 222.516C257.325 222.825 257.44 223.139 257.546 223.457C257.652 223.767 257.767 224.076 257.891 224.386C258.014 224.722 258.134 225.053 258.249 225.38C258.364 225.707 258.474 226.039 258.58 226.375C258.615 226.295 258.646 226.215 258.673 226.136C258.699 226.048 258.73 225.959 258.766 225.871C258.943 225.429 259.106 224.991 259.256 224.558C259.415 224.125 259.561 223.683 259.694 223.232C259.738 223.108 259.773 222.985 259.8 222.861C259.835 222.728 259.871 222.6 259.906 222.476C259.968 222.264 260.008 222.101 260.025 221.986C260.043 221.862 260.096 221.729 260.185 221.588C260.264 221.464 260.37 221.376 260.503 221.323C260.635 221.261 260.772 221.234 260.914 221.243C261.055 221.243 261.183 221.278 261.298 221.349C261.422 221.42 261.515 221.526 261.577 221.667C261.603 221.72 261.639 221.804 261.683 221.919C261.727 222.025 261.771 222.145 261.815 222.277C261.86 222.401 261.904 222.52 261.948 222.635C261.992 222.741 262.023 222.821 262.041 222.874C262.147 223.157 262.249 223.435 262.346 223.709C262.443 223.983 262.54 224.262 262.638 224.545C262.761 224.907 262.885 225.265 263.009 225.619C263.141 225.964 263.274 226.308 263.407 226.653C263.486 226.423 263.561 226.189 263.632 225.95C263.703 225.712 263.782 225.477 263.871 225.248C264.109 224.611 264.335 223.975 264.547 223.338C264.768 222.702 264.936 222.052 265.051 221.389L265.064 221.309ZM272.685 228.417C272.756 228.673 272.742 228.885 272.645 229.053C272.548 229.221 272.411 229.331 272.234 229.385C272.066 229.446 271.881 229.442 271.677 229.371C271.474 229.301 271.297 229.159 271.147 228.947C270.899 229.133 270.656 229.261 270.418 229.331C270.188 229.411 269.923 229.455 269.622 229.464C269.171 229.482 268.769 229.429 268.415 229.305C268.062 229.19 267.761 229.013 267.514 228.775C267.275 228.536 267.098 228.24 266.983 227.886C266.868 227.524 266.829 227.108 266.864 226.64C266.882 226.445 266.913 226.255 266.957 226.07C267.01 225.884 267.067 225.703 267.129 225.526C267.2 225.331 267.297 225.124 267.421 224.903C267.553 224.682 267.686 224.492 267.819 224.333C268.296 223.749 268.893 223.329 269.609 223.073C269.732 223.029 269.9 222.989 270.113 222.954C270.325 222.918 270.537 222.905 270.749 222.914C270.97 222.914 271.178 222.94 271.372 222.993C271.576 223.046 271.726 223.139 271.823 223.272C271.903 223.378 271.96 223.471 271.995 223.55C272.031 223.63 272.048 223.714 272.048 223.802C272.057 223.891 272.057 223.988 272.048 224.094C272.048 224.191 272.048 224.315 272.048 224.465C272.048 224.713 272.044 224.956 272.035 225.194C272.035 225.424 272.04 225.659 272.048 225.897C272.048 225.977 272.048 226.083 272.048 226.215C272.048 226.339 272.053 226.472 272.062 226.613C272.071 226.755 272.079 226.892 272.088 227.024C272.106 227.148 272.128 227.25 272.155 227.329L272.685 228.417ZM269.874 227.82C269.971 227.758 270.082 227.692 270.205 227.621C270.329 227.541 270.44 227.453 270.537 227.356C270.457 226.887 270.409 226.419 270.391 225.95C270.382 225.482 270.387 225.009 270.404 224.531C270.007 224.602 269.648 224.775 269.33 225.049C269.012 225.323 268.791 225.645 268.667 226.017C268.614 226.167 268.57 226.322 268.535 226.481C268.499 226.64 268.486 226.794 268.495 226.945C268.504 227.148 268.557 227.32 268.654 227.462C268.751 227.594 268.866 227.696 268.999 227.767C269.14 227.838 269.286 227.877 269.436 227.886C269.595 227.895 269.741 227.873 269.874 227.82ZM278.872 227.793C279.067 227.882 279.217 228.001 279.323 228.151C279.438 228.302 279.496 228.456 279.496 228.615C279.505 228.766 279.456 228.907 279.35 229.04C279.244 229.181 279.071 229.283 278.833 229.345C278.656 229.389 278.461 229.389 278.249 229.345C278.037 229.309 277.843 229.283 277.666 229.265C277.215 229.23 276.769 229.217 276.327 229.225C275.893 229.234 275.451 229.248 275.001 229.265C274.877 229.274 274.744 229.287 274.603 229.305C274.461 229.323 274.32 229.327 274.179 229.318C274.037 229.309 273.9 229.283 273.768 229.239C273.644 229.194 273.538 229.11 273.449 228.987C273.343 228.836 273.29 228.686 273.29 228.536C273.299 228.377 273.339 228.227 273.41 228.085C273.48 227.935 273.569 227.793 273.675 227.661C273.781 227.519 273.878 227.391 273.966 227.276C274.338 226.772 274.727 226.295 275.133 225.844C275.549 225.385 275.969 224.92 276.393 224.452C276.207 224.461 276.017 224.47 275.823 224.478C275.637 224.478 275.447 224.483 275.253 224.492C275.023 224.509 274.78 224.536 274.523 224.571C274.276 224.607 274.037 224.589 273.807 224.518C273.604 224.456 273.458 224.359 273.37 224.227C273.281 224.085 273.242 223.939 273.25 223.789C273.259 223.639 273.312 223.493 273.41 223.351C273.507 223.201 273.639 223.086 273.807 223.007C273.887 222.962 273.971 222.94 274.059 222.94C274.148 222.94 274.236 222.936 274.324 222.927C274.713 222.901 275.089 222.883 275.451 222.874C275.814 222.856 276.194 222.843 276.592 222.834C276.716 222.834 276.91 222.825 277.175 222.808C277.44 222.781 277.706 222.781 277.971 222.808C278.245 222.834 278.484 222.905 278.687 223.02C278.899 223.126 279.014 223.312 279.032 223.577C279.04 223.727 279.014 223.869 278.952 224.001C278.89 224.134 278.806 224.257 278.7 224.372C278.603 224.487 278.497 224.598 278.382 224.704C278.267 224.801 278.165 224.898 278.077 224.996C277.67 225.429 277.264 225.862 276.857 226.295C276.459 226.728 276.075 227.175 275.703 227.634C276.225 227.625 276.738 227.634 277.242 227.661C277.754 227.678 278.271 227.714 278.793 227.767L278.872 227.793ZM286.056 228.417C286.127 228.673 286.114 228.885 286.016 229.053C285.919 229.221 285.782 229.331 285.605 229.385C285.437 229.446 285.252 229.442 285.048 229.371C284.845 229.301 284.668 229.159 284.518 228.947C284.27 229.133 284.027 229.261 283.789 229.331C283.559 229.411 283.294 229.455 282.993 229.464C282.542 229.482 282.14 229.429 281.786 229.305C281.433 229.19 281.132 229.013 280.885 228.775C280.646 228.536 280.469 228.24 280.354 227.886C280.239 227.524 280.2 227.108 280.235 226.64C280.253 226.445 280.284 226.255 280.328 226.07C280.381 225.884 280.438 225.703 280.5 225.526C280.571 225.331 280.668 225.124 280.792 224.903C280.925 224.682 281.057 224.492 281.19 224.333C281.667 223.749 282.264 223.329 282.98 223.073C283.104 223.029 283.272 222.989 283.484 222.954C283.696 222.918 283.908 222.905 284.12 222.914C284.341 222.914 284.549 222.94 284.743 222.993C284.947 223.046 285.097 223.139 285.194 223.272C285.274 223.378 285.331 223.471 285.367 223.55C285.402 223.63 285.42 223.714 285.42 223.802C285.428 223.891 285.428 223.988 285.42 224.094C285.42 224.191 285.42 224.315 285.42 224.465C285.42 224.713 285.415 224.956 285.406 225.194C285.406 225.424 285.411 225.659 285.42 225.897C285.42 225.977 285.42 226.083 285.42 226.215C285.42 226.339 285.424 226.472 285.433 226.613C285.442 226.755 285.451 226.892 285.459 227.024C285.477 227.148 285.499 227.25 285.526 227.329L286.056 228.417ZM283.245 227.82C283.342 227.758 283.453 227.692 283.576 227.621C283.7 227.541 283.811 227.453 283.908 227.356C283.828 226.887 283.78 226.419 283.762 225.95C283.753 225.482 283.758 225.009 283.775 224.531C283.378 224.602 283.02 224.775 282.701 225.049C282.383 225.323 282.162 225.645 282.038 226.017C281.985 226.167 281.941 226.322 281.906 226.481C281.87 226.64 281.857 226.794 281.866 226.945C281.875 227.148 281.928 227.32 282.025 227.462C282.122 227.594 282.237 227.696 282.37 227.767C282.511 227.838 282.657 227.877 282.807 227.886C282.967 227.895 283.112 227.873 283.245 227.82Z" fill="black"/>
<path d="M369.707 25.7071C370.098 25.3166 370.098 24.6834 369.707 24.2929L363.343 17.9289C362.953 17.5384 362.319 17.5384 361.929 17.9289C361.538 18.3195 361.538 18.9526 361.929 19.3431L367.586 25L361.929 30.6569C361.538 31.0474 361.538 31.6805 361.929 32.0711C362.319 32.4616 362.953 32.4616 363.343 32.0711L369.707 25.7071ZM324 26L369 26L369 24L324 24L324 26Z" fill="#079BDB"/>
<path d="M375.707 131.707C376.098 131.317 376.098 130.683 375.707 130.293L369.343 123.929C368.953 123.538 368.319 123.538 367.929 123.929C367.538 124.319 367.538 124.953 367.929 125.343L373.586 131L367.929 136.657C367.538 137.047 367.538 137.681 367.929 138.071C368.319 138.462 368.953 138.462 369.343 138.071L375.707 131.707ZM330 132L375 132L375 130L330 130L330 132Z" fill="#29B448"/>
<path d="M371.707 221.707C372.098 221.317 372.098 220.683 371.707 220.293L365.343 213.929C364.953 213.538 364.319 213.538 363.929 213.929C363.538 214.319 363.538 214.953 363.929 215.343L369.586 221L363.929 226.657C363.538 227.047 363.538 227.681 363.929 228.071C364.319 228.462 364.953 228.462 365.343 228.071L371.707 221.707ZM326 222L371 222L371 220L326 220L326 222Z" fill="#FBCF14"/>
</svg>
